<?xml version="1.0" encoding="UTF-8" standalone="no"?>
<!-- Created with Inkscape (http://www.inkscape.org/) -->

<svg
   xmlns:dc="http://purl.org/dc/elements/1.1/"
   xmlns:cc="http://creativecommons.org/ns#"
   xmlns:rdf="http://www.w3.org/1999/02/22-rdf-syntax-ns#"
   xmlns:svg="http://www.w3.org/2000/svg"
   xmlns="http://www.w3.org/2000/svg"
   xmlns:sodipodi="http://sodipodi.sourceforge.net/DTD/sodipodi-0.dtd"
   xmlns:inkscape="http://www.inkscape.org/namespaces/inkscape"
   width="128"
   height="128"
   id="svg2409"
   sodipodi:version="0.32"
   inkscape:version="0.47 r22583"
   version="1.0"
   sodipodi:docname="fullscreen.svg"
   inkscape:output_extension="org.inkscape.output.svg.inkscape">
  <defs
     id="defs2411">
    <inkscape:perspective
       sodipodi:type="inkscape:persp3d"
       inkscape:vp_x="0 : 64 : 1"
       inkscape:vp_y="0 : 1000 : 0"
       inkscape:vp_z="128 : 64 : 1"
       inkscape:persp3d-origin="64 : 42.666667 : 1"
       id="perspective17" />
    <linearGradient
       id="linearGradient2836">
      <stop
         style="stop-color: rgb(248, 234, 210); stop-opacity: 1;"
         offset="0"
         id="stop2838" />
      <stop
         id="stop2840"
         offset="0.38821217"
         style="stop-color: rgb(207, 176, 127); stop-opacity: 1;" />
      <stop
         style="stop-color:#454545;stop-opacity:1;"
         offset="1"
         id="stop2842" />
    </linearGradient>
    <linearGradient
       id="linearGradient3209">
      <stop
         id="stop3211"
         offset="0"
         style="stop-color: rgb(248, 234, 210); stop-opacity: 1;" />
      <stop
         style="stop-color: rgb(207, 176, 127); stop-opacity: 1;"
         offset="0.33294758"
         id="stop3213" />
      <stop
         id="stop3215"
         offset="1"
         style="stop-color:#454545;stop-opacity:1;" />
    </linearGradient>
  </defs>
  <sodipodi:namedview
     id="base"
     pagecolor="#717171"
     bordercolor="#666666"
     borderopacity="1.0"
     inkscape:pageopacity="0"
     inkscape:pageshadow="2"
     inkscape:zoom="1.979899"
     inkscape:cx="-40.461589"
     inkscape:cy="59.718016"
     inkscape:document-units="px"
     inkscape:current-layer="g2844"
     showgrid="false"
     inkscape:showpageshadow="false"
     inkscape:window-width="1024"
     inkscape:window-height="696"
     inkscape:window-x="0"
     inkscape:window-y="24"
     showguides="true"
     inkscape:guide-bbox="true"
     inkscape:window-maximized="1" />
  <metadata
     id="metadata2414">
    <rdf:RDF>
      <cc:Work
         rdf:about="">
        <dc:format>image/svg+xml</dc:format>
        <dc:type
           rdf:resource="http://purl.org/dc/dcmitype/StillImage" />
      </cc:Work>
    </rdf:RDF>
  </metadata>
  <g
     inkscape:label="Ebene 1"
     inkscape:groupmode="layer"
     id="layer1">
    <g
       id="g2844"
       transform="translate(-2.8571427,0.40178724)">
      <path
         style="fill:#ffffff;fill-opacity:0.58823529;fill-rule:nonzero;stroke:#ffffff;stroke-width:1.91974008;stroke-linecap:butt;stroke-linejoin:round;stroke-miterlimit:4;stroke-opacity:1;stroke-dasharray:none;stroke-dashoffset:0;marker:none;visibility:visible;display:inline;overflow:visible"
         d="m 20.388393,15.270088 7.96875,35.34375 5.3125,-5.03125 9.21875,9.75 c 0.07812,0.08277 0.19409,0.11358 0.28125,0.03125 l 15.90625,-15.03125 c 0.08709,-0.08233 0.07812,-0.22979 0,-0.3125 l -9.1875,-9.71875 5.59375,-5.28125 -17.5625,-4.875 -17.53125,-4.875 z m 92.937497,0 -17.531247,4.875 -17.5625,4.875 5.59375,5.28125 -9.1875,9.71875 c -0.07812,0.08271 -0.08709,0.230174 0,0.3125 l 15.90625,15.03125 c 0.08716,0.08233 0.203132,0.05152 0.28125,-0.03125 l 9.218747,-9.75 5.3125,5.03125 7.96875,-35.34375 z m -70.312497,56.53125 c -0.05417,0.0027 -0.08594,0.02111 -0.125,0.0625 l -9.21875,9.75 -5.3125,-5 -7.96875,35.312502 17.53125,-4.875 17.5625,-4.875 -5.59375,-5.281252 9.1875,-9.71875 c 0.07812,-0.08271 0.08709,-0.230174 0,-0.3125 l -15.90625,-15 c -0.04358,-0.04117 -0.102078,-0.06521 -0.15625,-0.0625 z m 47.6875,0 c -0.05417,-0.0027 -0.11267,0.02133 -0.15625,0.0625 l -15.90625,15 c -0.08709,0.08233 -0.07812,0.22979 0,0.3125 l 9.1875,9.71875 -5.59375,5.281252 17.5625,4.875 17.531247,4.875 -7.96875,-35.312502 -5.3125,5 -9.218747,-9.75 c -0.03906,-0.04139 -0.07083,-0.05979 -0.125,-0.0625 z"
         id="path4329" />
    </g>
  </g>
</svg>
